<svg width="257" height="128" viewBox="0 0 257 128" fill="none" xmlns="http://www.w3.org/2000/svg">
<g clip-path="url(#clip0_6950_37797)">
<path d="M0 0L256.362 0L209.8 128H0V0Z" fill="#00385F"/>
<g clip-path="url(#clip1_6950_37797)">
<path d="M137.234 87.8241H140.159V79.6915C141.019 78.9785 142.05 78.4632 143.008 78.4632C144.506 78.4632 144.801 79.6191 144.801 81.0423V87.8241H147.751V80.1343C147.751 76.8172 145.857 75.9093 144.016 75.9093C142.568 75.9093 141.264 76.5471 140.036 77.5051L139.741 76.2045H137.234V87.8241ZM127.447 80.786C127.447 79.3935 128.258 78.1569 129.706 78.1569C131.255 78.1569 131.892 79.4603 131.934 80.786H127.447ZM130.469 88.0831C131.91 88.1089 133.33 87.7349 134.572 87.0025L133.686 84.9637C132.79 85.4815 131.774 85.7525 130.739 85.7491C128.79 85.7491 127.52 84.5933 127.472 82.7997H134.914V82.1229C134.914 78.2683 133.023 75.9093 129.756 75.9093C126.439 75.9093 124.523 78.5384 124.523 82.0366C124.523 85.181 126.219 88.0803 130.469 88.0803M117.691 82.4571C116.387 82.4571 115.652 81.4489 115.652 80.2959C115.652 78.9033 116.51 78.1346 117.666 78.1346C118.967 78.1346 119.755 79.1651 119.755 80.3209C119.755 81.7135 118.869 82.4571 117.691 82.4571ZM117.886 91.5951C115.936 91.5951 114.716 90.8849 114.716 89.7291C114.716 88.9688 115.273 88.4758 115.652 88.2056C117.223 88.8211 120.835 88.4841 120.835 90.1552C120.835 91.0158 119.654 91.6035 117.886 91.6035M117.482 93.645C121.512 93.645 123.609 91.9266 123.609 89.8126C123.609 85.4651 115.97 87.4063 115.97 85.3174C115.985 85.0085 116.087 84.7101 116.265 84.4568C116.728 84.5942 117.208 84.6609 117.691 84.6546C120.515 84.6546 122.504 82.9584 122.504 80.3543C122.522 79.3395 122.154 78.3556 121.473 77.6026C121.74 77.4694 122.035 77.4025 122.334 77.4077C122.624 77.4129 122.912 77.454 123.192 77.5302L123.782 75.4163C123.521 75.3864 123.259 75.3706 122.997 75.369C121.571 75.369 120.81 75.7617 120.195 76.3744C120.157 76.4126 120.108 76.4381 120.055 76.4471C120.002 76.4561 119.948 76.4482 119.9 76.4245C119.185 76.0618 118.391 75.8846 117.591 75.9093C114.421 75.9093 112.856 78.0455 112.856 80.1844C112.856 81.7302 113.569 83.081 114.806 83.8051C113.847 84.468 113.413 85.3035 113.413 85.9914C113.402 86.2787 113.466 86.5639 113.599 86.8185C113.733 87.0731 113.931 87.2883 114.173 87.4425C112.97 87.9577 112.087 88.966 112.087 90.2276C112.087 92.2441 114.076 93.6422 117.49 93.6422M103.423 80.786C103.423 79.3935 104.233 78.1569 105.681 78.1569C107.23 78.1569 107.868 79.4603 107.91 80.786H103.423ZM106.445 88.0831C107.886 88.1089 109.306 87.7349 110.547 87.0025L109.661 84.9637C108.766 85.4815 107.749 85.7525 106.715 85.7491C104.765 85.7491 103.495 84.5933 103.448 82.7997H110.89V82.1229C110.89 78.2683 108.999 75.9093 105.732 75.9093C102.414 75.9093 100.498 78.5384 100.498 82.0366C100.498 85.181 102.194 88.0803 106.445 88.0803M96.5935 74.3106C96.9402 74.304 97.2772 74.195 97.562 73.9973C97.8469 73.7996 98.0669 73.5221 98.1944 73.1996C98.3219 72.8772 98.3511 72.5242 98.2784 72.1852C98.2058 71.8461 98.0344 71.5362 97.786 71.2943C97.5375 71.0524 97.2231 70.8894 96.8822 70.8259C96.5414 70.7623 96.1893 70.801 95.8704 70.9371C95.5515 71.0731 95.2799 71.3005 95.0899 71.5905C94.8999 71.8806 94.8 72.2204 94.8027 72.5671C94.8007 72.8007 94.846 73.0322 94.9358 73.2478C95.0257 73.4633 95.1583 73.6585 95.3257 73.8214C95.493 73.9843 95.6917 74.1116 95.9096 74.1957C96.1275 74.2798 96.3601 74.3189 96.5935 74.3106ZM95.1202 87.8241H98.0696V76.2045H95.1258L95.1202 87.8241ZM81.9298 86.6682C83.1581 87.5288 84.9266 88.0608 86.8177 88.0608C90.1348 88.0608 92.5913 86.2922 92.5913 83.418C92.5913 78.2822 85.5895 78.6833 85.5895 75.7032C85.5895 74.4025 86.6701 73.9597 87.8009 73.9597C89.1507 73.9889 90.4737 74.3424 91.6583 74.9902V72.2886C90.4157 71.7275 89.0637 71.4506 87.7006 71.4781C84.3362 71.4781 82.4451 73.567 82.4451 75.9343C82.4451 80.8724 89.4469 80.4797 89.4469 83.6491C89.4469 85.0417 88.0961 85.5653 86.7425 85.5653C85.4345 85.5631 84.1588 85.1586 83.0884 84.4067L81.9298 86.6682Z" fill="white"/>
<path d="M192.252 65.7658C193.407 65.7658 194.808 65.4204 195.641 64.855L194.758 62.8414C194.234 63.1929 193.62 63.3863 192.99 63.3984C192.227 63.3984 191.859 63.0057 191.859 61.9251V56.1849H194.661L195.371 53.9011H191.859V50.3361L188.935 51.1967V53.9011H186.848V56.1849H188.935V62.6464C188.935 64.596 190.188 65.7658 192.252 65.7658ZM182.782 52.1548C183.082 52.1576 183.377 52.0709 183.628 51.9058C183.878 51.7406 184.074 51.5046 184.191 51.2277C184.307 50.9508 184.338 50.6456 184.28 50.3509C184.222 50.0563 184.078 49.7855 183.865 49.5732C183.653 49.3608 183.382 49.2165 183.088 49.1586C182.793 49.1007 182.488 49.1318 182.211 49.248C181.934 49.3642 181.698 49.5602 181.533 49.811C181.368 50.0618 181.281 50.3561 181.284 50.6564C181.282 50.8536 181.32 51.0491 181.395 51.2316C181.47 51.414 181.58 51.5798 181.719 51.7192C181.859 51.8587 182.025 51.969 182.207 52.0438C182.39 52.1186 182.585 52.1563 182.782 52.1548ZM178.089 52.1548C178.39 52.1576 178.684 52.0709 178.935 51.9058C179.185 51.7406 179.381 51.5046 179.498 51.2277C179.614 50.9508 179.645 50.6456 179.587 50.3509C179.529 50.0563 179.385 49.7855 179.173 49.5732C178.96 49.3608 178.689 49.2165 178.395 49.1586C178.1 49.1007 177.795 49.1318 177.518 49.248C177.241 49.3642 177.005 49.5602 176.84 49.811C176.675 50.0618 176.588 50.3561 176.591 50.6564C176.594 51.0529 176.753 51.4323 177.033 51.7127C177.313 51.9931 177.693 52.1519 178.089 52.1548ZM182.142 60.1147V62.5963C181.511 63.1356 180.713 63.4397 179.883 63.4569C178.827 63.4569 178.162 62.8664 178.162 61.8582C178.141 61.5922 178.197 61.3258 178.324 61.0907C178.45 60.8557 178.641 60.6619 178.875 60.5325C179.403 60.2777 179.984 60.1517 180.571 60.1649L182.142 60.1147ZM182.83 65.5207H185.286C185.116 64.9052 185.066 63.8969 185.066 62.5461V57.8309C185.066 55.0291 183.517 53.6059 180.398 53.6059C178.826 53.5976 177.277 53.9947 175.903 54.7589L176.861 56.65C177.796 56.138 178.842 55.8599 179.908 55.8395C181.259 55.8395 182.136 56.43 182.136 57.7891V58.1568L180.147 58.2264C179.113 58.2298 178.09 58.4559 177.151 58.8893C175.947 59.5048 175.184 60.4851 175.184 62.0587C175.184 64.2869 176.83 65.7685 179.042 65.7685C180.289 65.77 181.488 65.2855 182.384 64.4178L182.83 65.5207ZM170.984 65.7658C172.14 65.7658 173.538 65.4204 174.374 64.855L173.491 62.8414C172.967 63.1929 172.353 63.3863 171.722 63.3984C170.959 63.3984 170.592 63.0057 170.592 61.9251V56.1849H173.377L174.09 53.9011H170.597V50.3361L167.673 51.1967V53.9011H165.584V56.1849H167.673V62.6464C167.673 64.596 168.926 65.7658 170.99 65.7658M162.125 52.0072C162.471 52.0001 162.808 51.8906 163.093 51.6926C163.377 51.4945 163.597 51.2168 163.724 50.8943C163.851 50.5718 163.88 50.219 163.807 49.8801C163.734 49.5413 163.562 49.2316 163.314 48.99C163.065 48.7484 162.751 48.5857 162.41 48.5223C162.069 48.459 161.717 48.4978 161.398 48.634C161.08 48.7701 160.808 48.9975 160.618 49.2875C160.428 49.5774 160.329 49.9171 160.331 50.2637C160.33 50.4974 160.375 50.729 160.465 50.9446C160.556 51.1601 160.689 51.3552 160.856 51.5181C161.024 51.681 161.222 51.8083 161.44 51.8924C161.659 51.9764 161.891 52.0155 162.125 52.0072ZM160.652 65.5207H163.598V53.8983H160.652V65.5207ZM149.338 64.6322C150.635 65.3895 152.112 65.7803 153.614 65.763C156.12 65.763 158.332 64.7074 158.332 62.1423C158.332 58.0899 152.878 58.8001 152.878 56.9592C152.878 56.1988 153.541 55.9036 154.524 55.9036C155.659 55.9205 156.779 56.1708 157.813 56.6389V54.1601C156.716 53.7792 155.561 53.5908 154.399 53.6031C151.672 53.6031 150.004 55.0514 150.004 57.1151C150.004 60.9976 155.457 60.2596 155.457 62.2259C155.457 63.1087 154.597 63.4541 153.419 63.4541C152.293 63.4417 151.193 63.1094 150.249 62.496L149.338 64.6322ZM142.175 65.5179H145.099V57.3157C146.057 56.4801 146.695 56.1598 147.456 56.1598C147.927 56.1618 148.388 56.298 148.784 56.5525C148.784 56.5525 149.489 53.89 149.494 53.89C149.077 53.7039 148.625 53.609 148.169 53.6114C146.99 53.6114 146.032 54.1518 144.974 55.2073L144.657 53.9067H142.175V65.5179ZM132.243 58.4687C132.243 57.0761 133.054 55.8395 134.505 55.8395C136.05 55.8395 136.691 57.143 136.733 58.4687H132.243ZM135.265 65.7658C136.706 65.7916 138.126 65.4175 139.368 64.6851L138.493 62.6826C137.597 63.2028 136.579 63.4749 135.544 63.4708C133.594 63.4708 132.327 62.315 132.277 60.5214H139.721V59.8334C139.721 55.976 137.83 53.6198 134.56 53.6198C131.246 53.6198 129.33 56.2462 129.33 59.7471C129.33 62.8915 131.023 65.7908 135.273 65.7908M121.855 65.6181H124.066L128.781 53.9206H125.837L123.013 61.8304H122.963L120.089 53.9206H117.114L121.855 65.6181ZM114.179 52.0072C114.525 52.0001 114.862 51.8906 115.147 51.6926C115.431 51.4945 115.651 51.2168 115.778 50.8943C115.905 50.5718 115.934 50.219 115.861 49.8801C115.788 49.5413 115.616 49.2316 115.368 48.99C115.119 48.7484 114.805 48.5857 114.464 48.5223C114.123 48.459 113.771 48.4978 113.452 48.634C113.134 48.7701 112.862 48.9975 112.672 49.2875C112.482 49.5774 112.383 49.9171 112.385 50.2637C112.383 50.4975 112.429 50.7293 112.519 50.945C112.609 51.1608 112.742 51.3561 112.909 51.519C113.077 51.682 113.276 51.8093 113.494 51.8932C113.712 51.9771 113.945 52.0159 114.179 52.0072ZM112.703 65.5207H115.652V53.8983H112.703V65.5207ZM99.2282 65.5207H102.164V57.3909C103.024 56.6779 104.055 56.1626 105.013 56.1626C106.511 56.1626 106.807 57.3185 106.807 58.7417V65.5235H109.756V57.8309C109.756 54.5138 107.862 53.6059 106.021 53.6059C104.57 53.6059 103.269 54.2437 102.041 55.2017L101.746 53.9011H99.2394L99.2282 65.5207ZM89.3048 65.7658C92.2765 65.7658 94.3904 64.7325 95.3959 62.6464C95.8401 61.6507 96.0507 60.5665 96.0114 59.4769V49.3307H93.0619V59.2541C93.0875 60.0153 92.9369 60.7721 92.6219 61.4655C92.0649 62.6213 90.9257 63.2842 89.3048 63.2842C87.6838 63.2842 86.5531 62.6213 85.9877 61.4655C85.6729 60.7808 85.5213 60.0324 85.5449 59.2792V49.3307H82.5982V59.4769C82.5605 60.558 82.7701 61.6335 83.2109 62.6213C84.1941 64.7325 86.308 65.7658 89.3048 65.7658Z" fill="white"/>
<path d="M54.1397 83.3512C51.6331 86.1363 47.7339 87.9076 42.5926 87.9076C36.6797 87.9076 31.7055 85.5403 28.5054 81.7803C25.3749 78.0984 24.1243 73.2662 24.1243 66.3423L24.0881 49.3335H41.2362V66.0638C41.2362 69.1581 41.5509 70.5507 41.8963 71.4196C42.5591 73.0545 44.4725 75.0709 47.6726 75.0709C50.6277 75.0709 52.6859 73.2996 53.4462 71.4196C53.7916 70.5507 54.1063 69.1581 54.1063 66.0638V50.7929L50.1765 52.464V41.8165L62.7096 34.3384L75.2427 41.8165V52.4612L71.2766 50.7902V87.7322H54.1397V83.3512Z" fill="white"/>
</g>
</g>
<defs>
<clipPath id="clip0_6950_37797">
<rect width="257" height="128" fill="white"/>
</clipPath>
<clipPath id="clip1_6950_37797">
<rect width="171.316" height="60" fill="white" transform="translate(24 34)"/>
</clipPath>
</defs>
</svg>
